# xmcd
#
# Track frame offsets: 
#        150
#        25997
#        54861
#        89605
#        134654
#        172309
#        211419
#        235854
#
# Disc length: 3627 seconds
#
# Revision: 0
# Processed by: cddbd v1.5.2PL0 Copyright (c) Steve Scherf et al.
# Submitted via: ExactAudioCopy v0.99pb4
#
DISCID=720e2908
DTITLE=Gov't Mule - Breckenridge
DYEAR=1994
DGENRE=Southern Rock
TTITLE0=Rocking Horse
TTITLE1=Blind Man In The Dark
TTITLE2=Mr. Big
TTITLE3=Mother Earth
TTITLE4=The Same Thing
TTITLE5=End of the Line
TTITLE6=Monkey Hill
TTITLE7=Gambler's Roll
EXTD=
EXTT0=
EXTT1=
EXTT2=
EXTT3=
EXTT4=
EXTT5=
EXTT6=
EXTT7=
PLAYORDER=
